<svg width="884" height="929" viewBox="0 0 884 929" fill="none" xmlns="http://www.w3.org/2000/svg">
<path d="M886.624 881.048C845.413 945.325 640.205 956.255 439.034 843.094C394.502 828.545 349.142 809.514 304 785C280.8 767.4 268.333 749.667 265 743C255 703 246.959 605.4 294.797 535C302.865 513.333 306.6 454.2 257 391C221.667 371.333 126.2 267 27 7L0 -45.0128H112.041C117.052 -45.3289 122.412 -45.3345 128.134 -45.0128C323.717 -34.018 911 -72 911 -72C908.596 26.9463 904.17 206.078 899.159 402.775C895.29 554.654 891.073 717.005 887.169 861L886.888 871.364C886.8 874.602 886.712 877.83 886.624 881.048Z" fill="url(#paint0_linear)"/>
<defs>
<linearGradient id="paint0_linear" x1="497.738" y1="-72" x2="497.738" y2="881.048" gradientUnits="userSpaceOnUse">
<stop stop-color="#6F6F6F"/>
<stop offset="1" stop-color="white"/>
</linearGradient>
</defs>
</svg>
